<mxfile host="app.diagrams.net" modified="2024-05-08T02:38:14.690Z" agent="Mozilla/5.0 (Windows NT 10.0; Win64; x64; rv:126.0) Gecko/20100101 Firefox/126.0" version="24.3.1" etag="QCUEkDJUip7tKS24nHhO" type="github">
  <diagram name="Page-1" id="5QO_2KmIBWhYaHY_-RN7">
    <mxGraphModel>
      <root>
        <mxCell id="0" />
        <mxCell id="1" parent="0" />
      </root>
    </mxGraphModel>
  </diagram>
</mxfile>
